<svg xmlns="http://www.w3.org/2000/svg" xmlns:xlink="http://www.w3.org/1999/xlink" viewBox="0 0 634.87 78.14"><defs><style>.cls-1{fill:url(#radial-gradient);}</style><radialGradient id="radial-gradient" cx="317.43" cy="39.07" r="178.66" gradientTransform="translate(0 32.89) scale(1 0.16)" gradientUnits="userSpaceOnUse"><stop offset="0"/><stop offset="1" stop-opacity="0"/></radialGradient></defs><g id="Layer_2" data-name="Layer 2"><g id="Layer_1-2" data-name="Layer 1"><path class="cls-1" d="M613.66,78.12l21.21,0-46.24-18h0L554.19,46.79h0L527.56,36.44h0L506.35,28.2h0l-17.3-6.72h0l-14.37-5.59h0l-12.13-4.71h0l-10.37-4h0l-9-3.49h0L433.85,0l-9.38,0,0,0-7.7,0,.05,0-7.71,0,.06,0-7.71,0,.05,0-6.5,0H201.13l-9.46,3.65h.05l-9,3.49h.05l-10.42,4h.05l-12.19,4.71h.06l-14.43,5.59h.06L128.52,28.2h0l-21.26,8.24h0L80.67,46.79h.06L46.24,60.17h.06L0,78.14H550.25l-.06,0,21.22,0-.06,0,21.21,0,0,0,21.2,0Zm-1.4-.58-15.84-6.6L570.55,60.17H587l44.69,17.37ZM325.46,3.65l.24,1.45L326,6.54h-8.21V3.65ZM486.28,53.18l-11-6.39H489.8l12.45,6.6,11.65,6.18H497.23ZM111.18,41.31l11.7-4.87h12.43l-21.73,9.75H99.48ZM193.24,7.14h7.4L193,10.57h-8l4.12-1.71ZM401.32,3.65h7.08l2.81,1.49,2.63,1.4h-7.57L403.79,5.1ZM549.65,59.57H533.16L506.87,46.79h14.29L541,55.7ZM502.75,53l-11.66-6.18h14.39l26.3,12.78H515.2ZM409.7,3.65h7l5.94,2.89h-7.48l-2.82-1.49ZM163.34,24.53l6.82-3.05h10l-12.59,6.11h-11Zm19.28-8.64h9l-10.25,5h-9.85l5.55-2.49Zm50.88,0-3.42,2.49-3.41,2.49H216.46l3.84-2.49,3.84-2.49ZM416.28,7.14h7.59l7.05,3.43h-8.17L419.4,8.8Zm54.14,28.69L463,31.89l-7-3.69h11.2l15.72,7.63ZM422.31,15.89h9.18l4.86,2.57,4.54,2.41h-10l-4.27-2.49Zm9.58,5.59H442l6,3.15,5.58,3H442.38l-5.24-3.06Zm23,6.11-6-3.16-5.58-2.95h10.05L466,27.59Zm-12.68-6.72-4.85-2.57-4.54-2.41h9.08l10.25,5Zm-10.54-5.59-4-2.12-3.74-2h8.28l8.45,4.1Zm-17.42-4.1h8.37l4,2.12,3.75,2h-9.08l-3.52-2Zm11.16,7.2,4.27,2.49H419.53l-3.85-2.49-3.84-2.49h9.27Zm-10.81,0,3.84,2.49H408.2l-3.41-2.49-3.42-2.49h9.36Zm-10.81,0,3.41,2.49H396.88l-3-2.49-3-2.49h9.44Zm-10.82,0,3,2.49H385.56L383,18.38l-2.57-2.49H390Zm-10.81,0,2.56,2.49H374.24l-2.13-2.49L370,15.89h9.6Zm-10.82,0,2.13,2.49H362.93l-1.71-2.49-1.71-2.49h9.66Zm-10.82,0,1.7,2.49H351.62l-1.28-2.49-1.28-2.49h9.72Zm-10.83,0,1.28,2.49H340.32l-1.71-5h9.77Zm-10.84,0,.86,2.49H329l-.42-2.49-.43-2.49H338Zm-10.84,0,.43,2.49H317.74v-5h9.82Zm-10.85,2.49H306.46l.43-2.49.42-2.49h9.82Zm-10.86-2.49-.42,2.49H295.19l.86-2.49.85-2.49h9.8Zm-10.87,0-.85,2.49H283.93l1.28-2.49,1.28-2.49h9.77Zm-10.87,0-1.28,2.49H272.67l1.71-2.49,1.71-2.49h9.72Zm-10.88,0-1.71,2.49H261.42l2.14-2.49,2.14-2.49h9.66Zm-10.89,0-2.13,2.49H250.18l2.56-2.49,2.56-2.49h9.6Zm-10.89,0-2.56,2.49H238.94l3-2.49,3-2.49h9.51Zm-10.89,0-3,2.49h-10.3l3.42-2.49,3.42-2.49H244Zm-21.79,0-3.85,2.49H205.22l4.27-2.49,4.27-2.49H223Zm-10.9,0L204,20.87H194l4.7-2.49,4.7-2.49h9.18Zm-15.6,2.49h-9.94l5.12-2.49L193,15.89h9.08Zm-17.48,3.66,6.29-3.05h10.05L180,27.59h-11.1Zm11.86,0,5.77-3.05H203l-5.25,3.05-5.25,3.06H181.3Zm11.86,0,5.25-3.05h10.23l-4.72,3.05L205,27.59H193.69Zm11.87,0,4.72-3.05h10.31l-4.19,3.05-4.2,3.06H206.08Zm11.87,0,4.19-3.05h10.4l-3.67,3.05-3.67,3.06H218.47Zm11.87,0,3.67-3.05h10.48l-3.15,3.05-3.15,3.06H230.86Zm11.87,0,3.15-3.05h10.55l-2.63,3.05-2.62,3.06h-11.6Zm11.87,0,2.63-3.05h10.61l-2.09,3.05-2.1,3.06H255.66Zm11.88,0,2.1-3.05h10.68l-1.58,3.05-1.57,3.06H268.06Zm11.88,0,1.58-3.05h10.72l-1,3.05-1.05,3.06H280.47Zm11.89,0L295,21.48h10.76l-.52,3.05-.53,3.06h-11.8Zm11.9,0,.53-3.05h10.77v6.11H305.31Zm11.91-3.05h10.77l.53,3.05.52,3.06H317.74Zm11.39,0h10.76l1.05,3.05,1,3.06h-11.8Zm12.44,3.05-1-3.05h10.72l1.57,3.05,1.58,3.06H342.62Zm11.94,0-1.58-3.05h10.68l2.1,3.05,2.1,3.06H355.08Zm11.93,0-2.1-3.05H374l2.63,3.05,2.62,3.06H367.54Zm11.94,0-2.62-3.05h10.55l3.15,3.05,3.15,3.06H380Zm11.95,0-3.15-3.05h10.48l3.67,3.05L404,27.59H392.48Zm11.95,0-3.67-3.05H408l4.19,3.05,4.2,3.06H405Zm12,0L409,21.48h10.32L421,22.56l7.76,5H417.43Zm16.67,3.06-1.68-1.09-7.76-5h10.23l5.25,3.05,5.24,3.06Zm13.52.61h11.29l7.45,3.94,7,3.69h-12.6L450,32Zm28.14,8.24h12.62l20.05,9.75H490l-9.5-5ZM407.31,7.14H415l3.35,1.77,3.12,1.66h-8.26l-2.94-1.71Zm9.24,6.09,3.52,2h-9.16l-3.18-2-3.17-2.05H413Zm-9.93,0,3.17,2h-9.25l-2.82-2-2.82-2.05h8.55Zm-9.93,0,2.82,2h-9.34l-2.46-2-2.47-2.05h8.63Zm-9.93,0,2.47,2h-9.42l-2.11-2-2.12-2.05h8.71Zm-9.93,0,2.11,2h-9.49l-1.76-2-1.76-2.05h8.78Zm-9.94,0,1.76,2H359.1l-1.41-2-1.41-2.05h8.85Zm-9.94,0,1.41,2h-9.61l-1.06-2-1.06-2.05h8.91Zm-9.94,0,1.06,2H338.4l-.7-2L337,11.18h9Zm-9.25,2h-9.69l-.36-2-.35-2.05h9Zm-10.66-2,.35,2h-9.71v-4.1h9Zm-10,2h-9.71l.35-2,.35-2.05h9Zm-10-2-.36,2h-9.69l.7-2,.71-2.05h9Zm-10,0-.7,2H286.8l1.06-2,1.06-2.05h9Zm-10,0-1.06,2h-9.61l1.41-2,1.41-2.05h8.91Zm-10,0-1.41,2h-9.55l1.76-2,1.76-2.05h8.85Zm-10,0-1.76,2h-9.49l2.11-2,2.12-2.05h8.78Zm-10,0-2.11,2h-9.42l2.47-2,2.47-2.05h8.71Zm-10,0-2.46,2h-9.34l2.82-2L241,11.18h8.63Zm-10,0-2.82,2h-9.25l3.17-2,3.17-2.05H240Zm-10,0-3.18,2H214.8l3.52-2,3.53-2.05h8.46Zm-10,0-3.52,2h-9.08l3.88-2,3.87-2.05h8.37Zm-13.89,2h-9l4.23-2,4.23-2.05H211Zm-10.37,0H184l4.58-2,4.58-2.05h8.18ZM146.66,32l8.51-3.82h11.11l-15.73,7.63H138.14Zm17.47-2.11,3.53-1.71h11.2l-14.41,7.63H151.94ZM173,32l7.21-3.82h11.29L184.89,32l-6.55,3.81h-12.6Zm13.15,0,6.55-3.82H204L198.13,32l-5.89,3.81H179.55Zm13.15,0,5.89-3.82h11.47L211.37,32l-5.24,3.81H193.35Zm13.15,0,5.24-3.82h11.55L224.6,32,220,35.83H207.16Zm13.15,0,4.59-3.82h11.63L237.84,32l-3.93,3.81H221Zm13.16,0,3.93-3.82h11.7L251.07,32l-3.28,3.81h-13Zm13.15,0,3.28-3.82h11.77L264.29,32l-2.62,3.81H248.59ZM265,32l2.62-3.82h11.83l-2,3.82-2,3.81H262.41Zm13.16,0,2-3.82H292L290.73,32l-1.31,3.81H276.23Zm13.18,0,1.31-3.82h11.91L303.93,32l-.65,3.81H290.06Zm13.18,0,.65-3.82h11.93v7.63H303.89Zm13.19-3.82h11.93l.65,3.82.66,3.81H317.74ZM330.94,32l-.66-3.82h11.91L343.5,32l1.31,3.81H331.59Zm13.2,0-1.31-3.82h11.88l2,3.82,2,3.81H345.45Zm13.22,0-2-3.82h11.83L369.84,32l2.62,3.81H359.32Zm15.84,3.81L370.58,32,368,28.2h11.77L383,32l3.28,3.81ZM383.8,32l-3.27-3.82h11.7L396.16,32l3.93,3.81h-13ZM397,32,393.1,28.2h11.63L409.32,32l4.58,3.81H401Zm13.23,0-4.58-3.82h11.55L422.47,32l5.24,3.81H414.85Zm13.24,0-5.24-3.82h11.46l2.35,1.51,9.45,6.12H428.74Zm19.13,3.81-2.34-1.51-9.45-6.12h11.38L448.77,32l6.55,3.81Zm14.93.61h12.71l9.5,5,8.89,4.72H474.28l-8.36-4.88Zm62.25,9.75H505.62l-20.06-9.75h12.52l15.36,6.89ZM496.73,35.83H484.32L468.59,28.2H479.7l12.08,5.41Zm-18.38-8.24h-11l-12.59-6.11h9.95l9.88,4.43Zm-15-6.72h-9.85l-10.25-5h9L460,19.37ZM450.9,15.28H442l-8.46-4.1h8.19l6.66,3Zm-10.51-4.71h-8.08l-7.06-3.43h7.49l5.5,2.46Zm-9-4H424l-5.94-2.89H425l4.46,2ZM409,8.86,412,10.57h-8.35L401,8.86l-2.64-1.72h7.76Zm-9.17,0,2.64,1.71h-8.44l-2.35-1.71-2.35-1.72h7.85Zm-9.18,0L393,10.57h-8.53l-2.06-1.71L380.4,7.14h7.94Zm-9.18,0,2.06,1.71H375L373.2,8.86l-1.77-1.72h8Zm-9.18,0,1.76,1.71h-8.68l-1.47-1.71-1.47-1.72h8.09Zm-9.19,0,1.47,1.71h-8.75l-1.17-1.71-1.18-1.72h8.16Zm-9.19,0,1.18,1.71h-8.81l-.88-1.71-.88-1.72h8.21Zm-9.19,0,.88,1.71h-8.86l-.58-1.71-.59-1.72h8.27ZM335,7.14l.59,1.72.58,1.71h-8.88L327,8.86l-.29-1.72Zm-8.33,3.43h-8.9V7.14h8.31Zm-9.51,0h-8.9l.29-1.71.3-1.72h8.31Zm-9.22-1.71-.3,1.71h-8.88l.58-1.71.59-1.72h8.3Zm-9.24,0-.59,1.71h-8.85l.88-1.71L291,7.14h8.27Zm-9.24,0-.88,1.71h-8.81l1.18-1.71,1.17-1.72h8.22Zm-9.25,0L279,10.57h-8.75l1.47-1.71,1.47-1.72h8.16Zm-9.25,0-1.47,1.71h-8.68l1.76-1.71,1.77-1.72h8.09Zm-9.26,0-1.76,1.71H251.3l2.06-1.71,2.06-1.72h8Zm-9.26,0-2,1.71h-8.53l2.35-1.71,2.35-1.72h7.94Zm-9.26,0-2.35,1.71h-8.44L235,8.86l2.65-1.72h7.85Zm-9.26,0-2.65,1.71h-8.35l2.94-1.71,2.94-1.72h7.76Zm-9.27,0-2.94,1.71h-8.26l3.23-1.71,3.23-1.72h7.68Zm-12.5,1.71H204l3.53-1.71L211,7.14h7.59Zm-9.56,0h-8.08l3.82-1.71,3.82-1.72h7.5Zm-19,.61h8.09l-9.16,4.1h-8.8l4.93-2Zm-11.32,4.71h8.9l-11.11,5h-9.75l6-2.49Zm-13.42,5.59h9.86L155,27.59h-10.9l4.45-1.85ZM142.68,28.2h11l-17,7.63H124.34L133.51,32ZM125.92,41.31l10.87-4.87h12.52l-20.06,9.75H115.06Zm14.74,0,10-4.87h12.62l-18.39,9.75H130.63Zm14.75,0,9.19-4.87h12.7L169,41.31l-8.36,4.88H146.21Zm14.74,0,8.36-4.87H191.3l-7.52,4.87-7.52,4.88H161.79Zm14.74,0,7.53-4.87H205.3l-6.69,4.87-6.69,4.88H177.37Zm14.75,0,6.69-4.87h13l-5.85,4.87-5.85,4.88H193Zm14.75,0,5.85-4.87h13l-5,4.87-5,4.88H208.54Zm14.75,0,5-4.87h13.12l-4.18,4.87-4.18,4.88H224.12Zm14.75,0,4.18-4.87h13.19l-3.35,4.87-3.34,4.88H239.71Zm14.76,0L262,36.44h13.25l-2.51,4.87-2.51,4.88H255.3Zm14.76,0,2.51-4.87h13.29l-1.67,4.87-1.67,4.88h-15Zm14.77,0,1.67-4.87h13.32l-.83,4.87-.84,4.88h-15Zm14.77,0,.84-4.87h13.34v9.75h-15Zm14.79-4.87h13.34l.84,4.87.83,4.88h-15Zm15.63,9.75-.84-4.88-.83-4.87H345l1.67,4.87,1.67,4.88Zm14-4.88-1.67-4.87H359l2.51,4.87L364,46.19H349Zm17.32,4.88-2.51-4.88-2.51-4.87h13.25l3.34,4.87,3.34,4.88Zm9-9.75H386.8l1.6,1.86,6.76,7.89H380.3Zm20.75,7.88-6.76-7.88h13.12l10,9.75H396Zm12.24-3-5-4.87h13l4,3.31,7.72,6.44H411.62Zm14.83,0-5.85-4.87h13l13.38,9.75H427.28Zm21.51,4.88-6.68-4.88-6.69-4.87h12.88L450,41.31l7.52,4.88Zm13.52-1.4-12.89-8.35h12.79l8.36,4.87,8.36,4.88H458.61ZM567.52,59.57H551.13l-19.87-8.92-8.62-3.86h14.2l11.39,4.74ZM535.39,46.19h-14.1L505.94,39.3l-6.38-2.86H512l8.71,3.63ZM510.53,35.83H498.21l-12.08-5.41-4.95-2.22h11L505,33.51Zm-19.8-8.24h-10.9l-9.89-4.43-3.75-1.68H476l10.33,4.29Zm-16.14-6.72h-9.75l-7.76-3.48-3.35-1.5h8.9l8.16,3.4Zm-13.41-5.59h-8.8l-6.66-3-2.5-1.12h8.09l7.07,2.94Zm-11.32-4.71h-8l-5.49-2.46-2.15-1h7.39l5.72,2.38Zm-9.69-4h-7.29l-4.47-2-2-.88h6.8l5,2.09ZM402.59,5.1l2.47,1.44H397.4L395.17,5.1,393,3.65h7.17Zm-8.53,0,2.23,1.44h-7.76l-2-1.44-2-1.45h7.25Zm-8.53,0,2,1.44h-7.84L377.94,5.1l-1.73-1.45h7.34ZM377,5.1l1.73,1.44h-7.91L369.32,5.1l-1.48-1.45h7.42Zm-8.53,0,1.48,1.44h-8L360.71,5.1l-1.23-1.45H367Zm-8.55,0,1.24,1.44h-8.06l-1-1.44-1-1.45h7.56Zm-8.54,0,1,1.44h-8.12L343.5,5.1l-.74-1.45h7.62Zm-8.55,0,.74,1.44H335.4l-.49-1.44-.5-1.45h7.67Zm-8.55,0,.49,1.44h-8.2l-.24-1.44-.25-1.45h7.7ZM317.13,6.54h-8.21l.25-1.44.24-1.45h7.72ZM308.55,5.1l-.25,1.44h-8.19l.49-1.44.5-1.45h7.7ZM300,5.1l-.49,1.44h-8.16l.74-1.44.74-1.45h7.67Zm-8.59,0-.75,1.44h-8.11l1-1.44,1-1.45h7.62Zm-8.61,0-1,1.44h-8L275,5.1l1.24-1.45h7.56Zm-8.6,0-1.24,1.44h-8l1.48-1.44,1.49-1.45h7.49Zm-8.62,0-1.48,1.44h-7.91l1.73-1.44,1.73-1.45H267Zm-8.61,0L255.2,6.54h-7.84l2-1.44,2-1.45h7.34Zm-8.62,0-2,1.44h-7.75l2.23-1.44L243,3.65h7.26Zm-8.62,0-2.22,1.44H229.8l2.48-1.44,2.47-1.45h7.17Zm-8.62,0L228.6,6.54H221l2.72-1.44,2.72-1.45h7.08ZM219.73,6.54h-7.48l3-1.44,3-1.45h7Zm-8.87,0h-7.39l3.22-1.44,3.21-1.45h6.9Zm-8.87,0H194.7l3.46-1.44,3.46-1.45h6.8ZM82.69,53.18,98,46.79h14.2L83.74,59.57H67.35Zm16.77,0,14.25-6.39H128L101.7,59.57H85.22Zm16.78,0,13.15-6.39h14.39L119.67,59.57H103.09Zm16.78,0,12-6.39h14.48l-11,6.39-11,6.39H121Zm16.78,0,10.95-6.39h14.57l-9.86,6.39-9.86,6.39H138.84Zm16.78,0,9.86-6.39h14.65l-8.76,6.39-8.77,6.39H156.71Zm16.78,0,8.76-6.39h14.74l-7.67,6.39-7.67,6.39H174.59Zm16.78,0,7.67-6.39h14.82l-6.57,6.39-6.58,6.39h-17Zm16.79,0,6.57-6.39h14.89l-5.47,6.39-5.48,6.39H210.35Zm16.78,0,5.48-6.39h15l-4.38,6.39-4.38,6.39H228.23Zm16.8,0,4.38-6.39h15l-3.29,6.39-3.29,6.39H246.12Zm16.79,0,3.29-6.39h15.07l-2.19,6.39-2.2,6.39H264Zm16.81,0,2.19-6.39h15.1l-1.1,6.39-1.09,6.39H281.92Zm16.81,0L302,46.79h15.12V59.57H299.82Zm16.82-6.39h15.12l2.19,12.78H317.74Zm17.92,12.78-2.19-12.78h15.1l2.19,6.39L353,59.57Zm15.74-6.39-2.19-6.39h15.07l.26.5,6.31,12.28H353.59Zm20.13,6.39-.25-.5L365,46.79h15l4.38,6.39,4.39,6.39Zm13.57-6.39-4.39-6.39h15l2.09,2.45,8.86,10.33H389.48Zm20.23,3.94-8.85-10.33h14.89l13.15,12.78H407.43Zm6.91-10.33h14.82l5.18,4.31,10.16,8.47h-17Zm25.93,8.47L428,46.79h14.74l17.53,12.78H443.35Zm23.14,4.31L443.78,46.79h14.65l9.86,6.39,9.87,6.39Zm8.1-6.39-9.86-6.39h14.57l10.95,6.39,11,6.39H479.27Zm99.69,6.39-11.39-4.75-19.29-8h14.1L585.4,59.57ZM537,46.19l-16.25-6.77-7.15-3h12.33L551,46.19ZM512.11,35.83l-12.77-5.31-5.58-2.32h10.92l19.65,7.63Zm-19.8-8.24L482,23.29l-4.37-1.81h9.76l15.74,6.11Zm-16.14-6.72L468,17.47l-3.8-1.58H473l12.81,5Zm-13.42-5.59-7.07-2.94-2.79-1.16h8l10.57,4.1Zm-11.32-4.71-5.72-2.38-2.51-1h7.3l8.82,3.43Zm-9.68-4-5-2.09-1.91-.8h6.71L449,6.54ZM433.68.61,440,3.05h-6.6l-4-1.68L427.5.61Zm-7.75,0,4,1.67,1.83.77H425.1l-3.92-1.76L419.65.61Zm-3.85,1.75,1.54.69h-6.8l-5-2.44h6.37ZM410.41.61l5,2.44h-6.89l-2.38-1.26L403.94.61Zm-14.32,0h6.56L405,1.87l2.23,1.18h-7l-2.09-1.22Zm-7.85,0h6.65L397,1.83l2.09,1.22H392l-1.88-1.22Zm-7.85,0h6.74L389,1.83l1.89,1.22h-7.15l-1.68-1.22Zm-7.84,0h6.82L381,1.83l1.68,1.22h-7.24L374,1.83Zm-.95,0,1.47,1.22,1.46,1.22h-7.31L366,1.83,364.7.61Zm-14.74,0h7l1.26,1.22,1.26,1.22H359l-1-1.22ZM349,.61h7l1.05,1.22,1.05,1.22H350.7l-.84-1.22Zm-7.83,0h7.1l.84,1.22L350,3.05h-7.52l-.63-1.22Zm-7.82,0h7.14l.63,1.22.63,1.22H334.2l-.41-1.22Zm-.64,0,.42,1.22.41,1.22H326l-.21-1.22L325.55.61Zm-15,0h7.19l.21,1.22.21,1.22h-7.61Zm-.61,0V3.05h-7.61l.21-1.22.21-1.22Zm-7.81,0-.21,1.22-.21,1.22h-7.59l.41-1.22.42-1.22Zm-7.82,0-.42,1.22-.42,1.22H293.1l.63-1.22.63-1.22Zm-7.82,0-.63,1.22-.63,1.22H284.9l.84-1.22.84-1.22Zm-7.84,0L285,1.83l-.84,1.22h-7.46l1.05-1.22,1-1.22ZM278,.61,277,1.83l-1,1.22h-7.39l1.26-1.22L271,.61Zm-7.84,0-2.52,2.44h-7.32l1.47-1.22L263.27.61Zm-7.85,0-1.47,1.22-1.46,1.22h-7.24l1.68-1.22L255.5.61Zm-7.85,0L252.8,1.83l-1.68,1.22H244l1.88-1.22L247.74.61Zm-7.84,0-1.89,1.22-1.88,1.22h-7.07l3.77-2.2L240,.61Zm-7.85,0-2.1,1.22-2.09,1.22h-7l2.3-1.22L232.22.61Zm-7.86,0-4.6,2.44h-6.89L222,1.83,224.46.61Zm-7.85,0-5,2.44h-6.79L214,1.83,216.7.61Zm-7.85,0-5.45,2.44h-6.69L206,1.83,208.94.61Zm-14,0h6.19L201.5,3.05h-6.6Zm-7.84,3h6.71l-6.93,2.89h-7.2Zm-9,3.49h7.31l-8.23,3.43h-7.89Zm-10.37,4h8l-9.86,4.1h-8.7Zm-12.13,4.71h8.8l-12,5H149Zm-14.37,5.59h9.76l-14.69,6.11H131.75Zm-17.3,6.72h10.92l-18.35,7.63H110.54ZM109,36.44h12.33l-23.4,9.75h-14ZM82.35,46.79h14.1L65.77,59.57H49.47ZM3.23,77.54,47.92,60.17h16.4L22.61,77.54Zm21,0L45,68.85l20.85-8.68h16.5L43.66,77.54Zm21,0L64.5,68.85l19.37-8.68h16.59L64.71,77.54Zm21,0L84,68.85l17.87-8.68h16.69L85.76,77.54Zm21,0,16.39-8.69,16.38-8.68H136.6l-14.9,8.68-14.89,8.69Zm21,0,14.89-8.69,14.9-8.68h16.86l-13.4,8.68-13.41,8.69Zm21,0,13.4-8.69,13.41-8.68h16.95l-11.92,8.68L148.9,77.54Zm21,0,11.91-8.69,11.92-8.68h17l-10.43,8.68-10.43,8.69Zm21,0,10.43-8.69,10.42-8.68h17.12l-8.94,8.68L191,77.54Zm21,0,8.94-8.69,8.94-8.68h17.19l-7.45,8.68L212,77.54Zm21,0,7.45-8.69,7.45-8.68H245l-6,8.68-5.95,8.69Zm21,0,6-8.69,6-8.68H263l-4.47,8.68-4.46,8.69Zm21,0,4.47-8.69,4.46-8.68h17.37l-3,8.68-3,8.69Zm21,0,3-8.69,3-8.68H299.1l-1.49,8.68-1.49,8.69Zm41.38,0H296.74l1.49-8.69,1.49-8.68h17.41Zm.61-17.37h17.41l3,17.37H317.74Zm41.38,17.37H338.74l-3-17.37h17.39l3,8.68Zm.64,0-3-8.69-3-8.68h17.37l.79,1.55,8.14,15.82Zm21,0L380,76l-8.14-15.82h17.31L398,73.08l3.06,4.46Zm21,0L393,64.63l-3.06-4.46h17.25l2.94,3.42,12,14Zm21,0-2.94-3.42-12-14h17.19L443,77.54Zm21,0L426,60.17h17.12l7.06,5.88L464,77.54Zm21.05,0-7.07-5.88L444.07,60.17h17l23.83,17.37Zm21,0L462.14,60.17h16.95l25.5,16.52,1.31.85Zm40.89,0H507L481.52,61l-1.32-.85h16.87L512,68.85Zm1.2,0-14.89-8.69-14.9-8.68h16.78l16.93,9,15.84,8.4Zm4.12-9-15.84-8.4H533l35.75,17.37H549.11Zm38,9L534.41,60.17H551l27.44,12.31,11.29,5.06Zm21.05,0L563.77,65.23l-11.29-5.06H569l15.84,6.6,25.86,10.77Z"/></g></g></svg>