<svg xmlns="http://www.w3.org/2000/svg" viewBox="0 0 98 126"><defs><style>.cls-1{fill:#424242;}.cls-2,.cls-3{fill:#fff;}.cls-2{opacity:0.8;}</style></defs><g id="Layer_2" data-name="Layer 2"><g id="Layer_1-2" data-name="Layer 1"><path class="cls-1" d="M75.41,105.4H22.59l-7-5.48.69,6.91s.34,4.25,7,4.25H74.71c6.7,0,7-4.25,7-4.25l.69-6.91Z"/><path d="M82.43,99.53,77.37,17.1c-.16-2.68-3.06-4.83-6.47-4.83H27.1c-3.41,0-6.31,2.15-6.47,4.83L15.57,99.53c-.23,3.76,2.91,6.84,7,6.84H75.41C79.52,106.37,82.66,103.29,82.43,99.53ZM74.49,87.11h-51a2.52,2.52,0,0,1-2.68-2.53L24.41,17.1A2.38,2.38,0,0,1,27,15.19H71a2.38,2.38,0,0,1,2.55,1.91l3.58,67.48A2.52,2.52,0,0,1,74.49,87.11Z"/><path class="cls-2" d="M77.17,84.58a2.52,2.52,0,0,1-2.68,2.53h-51a2.52,2.52,0,0,1-2.68-2.53L24.41,17.1A2.38,2.38,0,0,1,27,15.19H71a2.38,2.38,0,0,1,2.55,1.91Z"/><path class="cls-3" d="M54.54,96.75a5.57,5.57,0,1,1-5.54-5A5.32,5.32,0,0,1,54.54,96.75Z"/><polygon points="49 0 44.13 7.79 53.87 7.79 49 0"/><polygon points="49 126 54.58 115.57 43.42 115.57 49 126"/><polygon points="98 59.26 88.64 54.12 89.35 64.47 98 59.26"/><polygon points="0 59.26 8.65 64.47 9.36 54.12 0 59.26"/></g></g></svg>